# xmcd
#
# Track frame offsets:
#	150
#	15363
#	29468
#	44959
#	59284
#	75349
#	93622
#	110023
#	125211
#	139859
#	155062
#	171104
#	182840
#	199053
#	213569
#	227221
#	240735
#	253411
#
# Disc length: 3605 seconds
#
# Revision: 1
# Processed by: cddbd v1.5.2PL0 Copyright (c) Steve Scherf et al.
# Submitted via: audiograbber 1.83.01
#
DISCID=0f0e1312
DTITLE=M T M - M T M 015
DYEAR=2008
DGENRE=Country
TTITLE0=24 - 7 - 365 - John Forster With The Ridge Band
TTITLE1=If You Can´t  Stand The Heat  - Tommy Townsend With Waylon Jennings
TTITLE2=Through With You  - Clear Blue 22
TTITLE3=Wiser Man Than Me  - Joel Fry
TTITLE4=The Armadillo Song  - John Arthur Martinez
TTITLE5=When The Tide Rolls In  - J C Andersen
TTITLE6=Take My Heart  - Face 2 Face
TTITLE7=Kiss Me Now  - Traci Kennedy
TTITLE8=Mathew James  - Marc Christian
TTITLE9=I Want You To Fall  - Aimee Pettersen
TTITLE10=Midnight To Cinderella  - Paulette Miechle
TTITLE11=It´s A Good Thing  - Jerry Schickling
TTITLE12=Only You  - Cissy Mccaa
TTITLE13=Country Church  - Claude Davis 
TTITLE14=A Good Woman To Love - Amanda White 
TTITLE15=There´s Not A Cow In Texas - Fletcher Jowers
TTITLE16=One Last Dance - Shane Warner
TTITLE17=Ticket Home  - Smokin Joe Meholick 
EXTD=
EXTT0=
EXTT1=
EXTT2=
EXTT3=
EXTT4=
EXTT5=
EXTT6=
EXTT7=
EXTT8=
EXTT9=
EXTT10=
EXTT11=
EXTT12=
EXTT13=
EXTT14=
EXTT15=
EXTT16=
EXTT17=
PLAYORDER=
